HIERARCHY
ROOT Hips
{
  OFFSET 3.13124 94.3669 -3.18751
  CHANNELS  6 Xposition Yposition Zposition Zrotation Xrotation Yrotation
  JOINT LeftUpLeg
  {
    OFFSET 8.64259 1.95398 -2.38835
    CHANNELS 3 Zrotation Xrotation Yrotation
    JOINT LeftLeg
    {
      OFFSET 43.7702 0 0
      CHANNELS 3 Zrotation Xrotation Yrotation
      JOINT LeftFoot
      {
        OFFSET 40.6238 0 0
        CHANNELS 3 Zrotation Xrotation Yrotation
        JOINT LeftToeBase
        {
          OFFSET 12.7242 0 0
          CHANNELS 3 Zrotation Xrotation Yrotation
          End Site
          {
            OFFSET 0 0 0
          }
        }
      }
    }
  }
  JOINT RightUpLeg
  {
    OFFSET -8.2249 1.95398 -2.59336
    CHANNELS 3 Zrotation Xrotation Yrotation
    JOINT RightLeg
    {
      OFFSET 43.5653 0 0
      CHANNELS 3 Zrotation Xrotation Yrotation
      JOINT RightFoot
      {
        OFFSET 40.6238 0 0
        CHANNELS 3 Zrotation Xrotation Yrotation
        JOINT RightToeBase
        {
          OFFSET 12.7242 0 0
          CHANNELS 3 Zrotation Xrotation Yrotation
          End Site
          {
            OFFSET 0 0 0
          }
        }
      }
    }
  }
  JOINT Spine
  {
    OFFSET 0.165834 0.87714 6.61349
    CHANNELS 3 Zrotation Xrotation Yrotation
    JOINT Spine1
    {
      OFFSET 7.38962 1.71661e-005 0
      CHANNELS 3 Zrotation Xrotation Yrotation
      JOINT Spine2
      {
        OFFSET 11.9445 1.14441e-005 0
        CHANNELS 3 Zrotation Xrotation Yrotation
        JOINT Spine3
        {
          OFFSET 14.7254 4.19617e-005 0
          CHANNELS 3 Zrotation Xrotation Yrotation
          JOINT Spine4
          {
            OFFSET 10.9679 0 0
            CHANNELS 3 Zrotation Xrotation Yrotation
            JOINT RightShoulder
            {
              OFFSET 2.46616 -1.6653 3.69651
              CHANNELS 3 Zrotation Xrotation Yrotation
              JOINT RightArm
              {
                OFFSET 13.0012 0 0
                CHANNELS 3 Zrotation Xrotation Yrotation
                JOINT RightForeArm
                {
                  OFFSET 28.7848 1.52588e-005 0
                  CHANNELS 3 Zrotation Xrotation Yrotation
                  JOINT RightHand
                  {
                    OFFSET 26.5688 1.52588e-005 0
                    CHANNELS 3 Zrotation Xrotation Yrotation
                    End Site
                    {
                      OFFSET 0 0 0
                    }
                  }
                }
              }
            }
            JOINT LeftShoulder
            {
              OFFSET 2.38034 -1.29275 -3.75231
              CHANNELS 3 Zrotation Xrotation Yrotation
              JOINT LeftArm
              {
                OFFSET 16.3182 6.10352e-005 0
                CHANNELS 3 Zrotation Xrotation Yrotation
                JOINT LeftForeArm
                {
                  OFFSET 27.0901 0 0
                  CHANNELS 3 Zrotation Xrotation Yrotation
                  JOINT LeftHand
                  {
                    OFFSET 24.5451 1.52588e-005 0
                    CHANNELS 3 Zrotation Xrotation Yrotation
                    End Site
                    {
                      OFFSET 0 0 0
                    }
                  }
                }
              }
            }
            JOINT Neck
            {
              OFFSET 5.0226 -0.0266342 0
              CHANNELS 3 Zrotation Xrotation Yrotation
              JOINT Head
              {
                OFFSET 6.69363 2.86102e-005 0
                CHANNELS 3 Zrotation Xrotation Yrotation
                End Site
                {
                  OFFSET 0 0 0
                }
              }
            }
          }
        }
      }
    }
  }
}
MOTION
Frames:	9
Frame Time:	0.0333333
-49.454 85.7814 -2.39986 -20.5918 -87.6063 -20.4767 -177.914 13.4634 105.325 -47.8919 66.3167 6.00629 67.6322 18.7686 9.97382 28.7808 2.70881e-006 -6.13053e-006 -179.23 35.005 74.7865 -34.1264 9.18102 0.299967 43.7089 7.65167 7.08528 28.7808 1.42272e-005 1.69058e-005 3.32343 6.98848 -90.4661 13.0237 6.49788 -2.38417 1.36631 6.38674 -2.66878 -21.2985 6.91308 -0.31214 -1.28585 6.91306 -0.312144 92.868 -15.8471 -106.461 24.6718 10.8539 -63.0281 -3.35725 -1.97907 -4.90118 -17.8368 2.20236 -19.661 -67.8768 -56.7632 111.082 4.79691 -23.4942 39.0996 28.2313 26.985 -49.1475 1.27455 0.896702 26.1215 55.3177 6.03074 44.5449 -50.1095 -13.5515 -27.3807 
-56.3269 87.3072 0.936556 77.3203 -81.3827 79.471 -175.374 12.5506 113.386 -42.2823 75.6805 9.06209 60.1467 12.6556 7.54872 28.7808 2.70881e-006 -6.13053e-006 -179.918 29.0402 78.177 -36.0557 9.57063 0.300612 50.0999 10.3639 8.17709 28.7808 1.42272e-005 1.69058e-005 3.20269 7.03005 -90.2244 12.9256 6.2843 -1.92402 1.26797 6.19226 -2.19939 -21.3895 6.56522 0.0596611 -1.37684 6.56524 0.0596451 93.3623 -11.586 -107.391 23.9252 11.7102 -63.1493 -4.07319 -19.0067 -4.94022 -10.1688 1.84966 -27.2719 -66.7357 -55.5122 112.884 2.04592 -22.7014 26.4562 13.3866 19.1101 -33.0174 13.6267 4.29592 26.0369 56.2578 4.8387 45.002 -50.6822 -13.9169 -30.1848 
-61.8529 89.4441 4.16651 81.4974 -74.5928 85.0181 -172.739 12.6466 117.509 -36.2886 78.5588 10.5554 47.8378 7.08084 4.83364 28.7808 2.70881e-006 -6.13053e-006 179.186 22.5152 83.0564 -30.6993 18.0645 0.909729 53.2228 10.1312 7.3993 28.7808 1.42272e-005 1.69058e-005 3.21484 6.9635 -90.0854 13.034 6.325 -1.4436 1.37753 6.25736 -1.72224 -21.2826 6.46991 0.536449 -1.26993 6.46994 0.536452 94.4642 -7.04584 -106.871 23.3997 12.1497 -65.1931 -4.90577 -35.7255 -5.23872 -4.46364 1.03195 -36.0033 -66.6802 -55.1931 113.016 1.27341 -22.7388 16.799 4.14499 4.65017 -23.3707 19.2365 6.22215 27.8636 55.3262 3.43751 44.0034 -50.5827 -13.3375 -31.4572 
-65.6952 92.8361 7.13256 82.5897 -72.3008 86.6225 -170.895 8.77813 116.985 -25.2547 63.6528 4.71676 37.2402 3.81679 2.53195 28.7808 2.70881e-006 -6.13053e-006 178.855 13.0801 86.6735 -15.3072 22.752 1.41193 45.6884 6.75361 5.92115 28.7808 1.42272e-005 1.69058e-005 3.55803 7.03707 -90.042 12.8396 7.03985 -0.748099 1.18744 7.00006 -1.05874 -21.4981 6.93762 1.41283 -1.48544 6.9376 1.41281 96.312 -1.26407 -104.405 24.2036 10.5192 -71.2384 -5.51067 -44.9688 -5.57666 3.50405 -1.33572 -41.1854 -67.0404 -56.6712 112.265 1.89312 -23.2898 19.1348 1.85347 -1.14228 -26.9917 18.4684 5.09492 23.2062 56.3175 2.95285 42.7326 -50.5049 -12.3075 -33.4635 
-68.8193 95.3112 9.33342 87.3173 -74.0311 88.563 -173.171 5.2049 110.572 -31.6543 49.685 3.39451 29.8804 10.009 9.11177 28.7808 2.70881e-006 -6.13053e-006 178.617 5.86854 85.9011 -4.41015 19.0985 1.16589 36.1798 7.22604 7.81152 28.7808 1.42272e-005 1.69058e-005 3.68157 7.38498 -88.5113 12.2351 7.915 0.442212 0.58825 7.9268 0.0912064 -22.1222 7.41378 2.81449 -2.10958 7.41377 2.81447 97.6431 2.70114 -101.937 25.7366 7.20478 -78.3943 -6.95001 -58.1399 -6.69993 -5.87159 2.18385 -51.6703 -65.4516 -58.1187 114.215 1.64166 -23.117 17.66 1.43062 -2.20474 -25.1743 16.4381 5.81209 30.0941 59.5251 2.76388 39.9735 -51.6578 -10.4843 -35.0639 
-71.6078 97.6044 11.3988 94.121 -75.4424 93.2435 -173.796 0.172623 102.61 -32.8526 34.3308 2.30823 31.7685 3.88347 2.20851 28.7808 2.70881e-006 -6.13053e-006 179.253 4.18746 85.1264 -4.30481 16.6058 0.993178 26.4359 11.616 14.2938 28.7808 1.42272e-005 1.69058e-005 3.66009 7.5332 -86.5132 12.107 8.29121 0.952477 0.462568 8.32426 0.583943 -22.2558 7.62498 3.40125 -2.24314 7.62498 3.40123 98.211 8.04172 -103.752 26.4746 4.96585 -77.2934 -31.0341 -61.8045 -33.2074 -2.3164 0.867961 -61.6309 -64.4753 -60.352 115.125 -0.70683 -22.0683 33.0165 4.59397 2.8407 -38.111 17.2255 3.65576 16.9734 57.4506 4.26593 40.5997 -51.2668 -6.0926 -40.4991 
-73.8096 99.8993 13.0414 90.9821 -74.099 89.6317 -175.237 -4.11171 94.953 -24.9728 19.2675 1.09695 31.6529 -5.80184 -8.01799 28.7808 2.70881e-006 -6.13053e-006 -179.951 5.72668 84.7623 -4.42986 19.5371 1.19417 10.6178 13.9826 22.7564 28.7808 1.42272e-005 1.69058e-005 3.30764 7.24405 -85.3437 12.8292 7.97762 1.0554 1.18266 8.01628 0.701 -21.5215 7.2898 3.42009 -1.50885 7.28977 3.42004 99.129 14.9577 -106.933 26.7378 3.68285 -69.2693 -56.8929 -50.3837 -62.8153 -1.99252 0.781542 -69.2714 -64.9381 -63.3828 113.97 -2.79931 -21.1901 41.1365 7.44005 5.30955 -44.3435 14.1878 3.97019 22.8444 51.1675 7.45749 45.7604 -50.0718 -0.604842 -47.8278 
-75.877 101.611 14.1873 82.6766 -70.3977 83.4279 -177.874 -1.21796 90.1447 -23.6575 7.81836 0.434065 26.7828 -8.36573 -11.4097 28.7808 2.70881e-006 -6.13053e-006 -179.399 8.1358 85.9868 -4.29497 16.3743 0.96954 10.7642 14.7455 23.7948 28.7808 1.42272e-005 1.69058e-005 2.83722 6.46923 -85.4336 14.3168 7.26009 1.10008 2.66604 7.30149 0.777914 -20.0062 6.59225 3.24092 0.00644933 6.59226 3.24092 100.351 20.1595 -106.93 25.6386 5.23637 -67.0539 -65.9273 -40.6504 -73.8102 3.89603 -3.41061 -78.7067 -65.6269 -63.6318 113.036 -5.92318 -19.852 49.905 5.0267 2.07584 -49.11 13.5537 3.19041 18.7051 42.018 7.59908 48.3462 -46.118 2.4403 -52.0428 
-78.0858 102.363 15.1621 75.9837 -65.4458 80.0631 -179.757 0.0236686 87.5656 -18.1999 -1.30787 -0.0969311 24.2036 -9.60952 -13.1886 28.7808 2.70881e-006 -6.13053e-006 -178.894 9.95365 87.6555 -4.71732 25.1571 1.61341 16.6811 11.8229 17.4086 28.7808 1.42272e-005 1.69058e-005 2.43626 5.71524 -86.2654 15.6939 6.44306 1.12498 4.03888 6.48567 0.837414 -18.6005 5.81054 3.00177 1.41217 5.81055 3.00177 102.174 27.1345 -94.5622 25.0974 0.686765 -78.2201 -56.802 -38.0008 -67.9954 3.80858 -3.33774 -79.3463 -64.8624 -62.2335 114.269 -10.4023 -18.5488 53.9711 4.35082 1.27457 -51.2099 13.1286 3.19539 19.4204 36.9367 6.08374 46.0454 -43.8902 3.28692 -50.8793 
